<svg xmlns="http://www.w3.org/2000/svg" width="780" height="325" viewBox="0 0 780 325" style="background:white; font-family:sans-serif;">

  <!-- ===== FAHRRADARTEN ===== -->
  <g transform="translate(30, 60)">
    <rect width="220" height="110" fill="#ebf8ff" stroke="#3182ce" stroke-width="2" rx="8"/>
    <rect width="220" height="32" fill="#3182ce" rx="8"/>
    <rect x="0" y="20" width="220" height="12" fill="#3182ce"/>
    <text x="110" y="21" text-anchor="middle" fill="white" font-weight="bold" font-size="13">fahrradarten</text>
    <text x="12" y="50" font-size="11" font-weight="bold" fill="#2b6cb0">🔑 fahrradartNr</text>
    <text x="208" y="50" font-size="10" fill="#4a5568" text-anchor="end">INT</text>
    <line x1="0" y1="56" x2="220" y2="56" stroke="#bee3f8" stroke-width="1"/>
    <text x="12" y="72" font-size="11" fill="#2d3748">bezeichnung</text>
    <text x="208" y="72" font-size="10" fill="#718096" text-anchor="end">VARCHAR(50)</text>
    <line x1="0" y1="78" x2="220" y2="78" stroke="#bee3f8" stroke-width="1"/>
    <text x="12" y="94" font-size="11" fill="#2d3748">kurzerlaeuterung</text>
    <text x="208" y="94" font-size="10" fill="#718096" text-anchor="end">VARCHAR(60)</text>
  </g>

  <!-- ===== FAHRRAEDER ===== -->
  <g transform="translate(295, 30)">
    <rect width="250" height="225" fill="#f0fff4" stroke="#38a169" stroke-width="2" rx="8"/>
    <rect width="250" height="32" fill="#38a169" rx="8"/>
    <rect x="0" y="20" width="250" height="12" fill="#38a169"/>
    <text x="125" y="21" text-anchor="middle" fill="white" font-weight="bold" font-size="13">fahrraeder</text>
    <text x="12" y="50" font-size="11" font-weight="bold" fill="#276749">🔑 fahrradNr</text>
    <text x="238" y="50" font-size="10" fill="#4a5568" text-anchor="end">INT</text>
    <line x1="0" y1="56" x2="250" y2="56" stroke="#c6f6d5" stroke-width="1"/>
    <text x="12" y="72" font-size="11" fill="#2d3748">bezeichnung</text>
    <text x="238" y="72" font-size="10" fill="#718096" text-anchor="end">VARCHAR(50)</text>
    <line x1="0" y1="78" x2="250" y2="78" stroke="#c6f6d5" stroke-width="1"/>
    <text x="12" y="94" font-size="11" fill="#2d3748">rahmenNummer</text>
    <text x="238" y="94" font-size="10" fill="#718096" text-anchor="end">VARCHAR(10)</text>
    <line x1="0" y1="100" x2="250" y2="100" stroke="#c6f6d5" stroke-width="1"/>
    <text x="12" y="116" font-size="11" fill="#2d3748">tagesmietpreis</text>
    <text x="238" y="116" font-size="10" fill="#718096" text-anchor="end">DOUBLE PRECISION</text>
    <line x1="0" y1="122" x2="250" y2="122" stroke="#c6f6d5" stroke-width="1"/>
    <text x="12" y="138" font-size="11" fill="#2d3748">anschaffungswert</text>
    <text x="238" y="138" font-size="10" fill="#718096" text-anchor="end">DOUBLE PRECISION</text>
    <line x1="0" y1="144" x2="250" y2="144" stroke="#c6f6d5" stroke-width="1"/>
    <text x="12" y="160" font-size="11" fill="#2d3748">kaufdatum</text>
    <text x="238" y="160" font-size="10" fill="#718096" text-anchor="end">DATE</text>
    <line x1="0" y1="166" x2="250" y2="166" stroke="#c6f6d5" stroke-width="1"/>
    <text x="12" y="182" font-size="11" fill="#c05621" font-style="italic">🔗 fahrradartNr</text>
    <text x="238" y="182" font-size="10" fill="#c05621" text-anchor="end">INT (FK)</text>
    <line x1="0" y1="188" x2="250" y2="188" stroke="#c6f6d5" stroke-width="1"/>
    <text x="12" y="204" font-size="11" fill="#2d3748">herstellerNr</text>
    <text x="238" y="204" font-size="10" fill="#718096" text-anchor="end">INT</text>
  </g>

  <!-- ===== KUNDEN ===== -->
  <g transform="translate(585, 80)">
    <rect width="175" height="188" fill="#fff5f5" stroke="#e53e3e" stroke-width="2" rx="8"/>
    <rect width="175" height="32" fill="#e53e3e" rx="8"/>
    <rect x="0" y="20" width="175" height="12" fill="#e53e3e"/>
    <text x="87" y="21" text-anchor="middle" fill="white" font-weight="bold" font-size="13">kunden</text>
    <text x="12" y="50" font-size="11" font-weight="bold" fill="#9b2c2c">🔑 kundenNr</text>
    <text x="163" y="50" font-size="10" fill="#4a5568" text-anchor="end">INT</text>
    <line x1="0" y1="56" x2="175" y2="56" stroke="#fed7d7" stroke-width="1"/>
    <text x="12" y="72" font-size="11" fill="#2d3748">name</text>
    <text x="163" y="72" font-size="10" fill="#718096" text-anchor="end">VARCHAR(30)</text>
    <line x1="0" y1="78" x2="175" y2="78" stroke="#fed7d7" stroke-width="1"/>
    <text x="12" y="94" font-size="11" fill="#2d3748">vorname</text>
    <text x="163" y="94" font-size="10" fill="#718096" text-anchor="end">VARCHAR(20)</text>
    <line x1="0" y1="100" x2="175" y2="100" stroke="#fed7d7" stroke-width="1"/>
    <text x="12" y="116" font-size="11" fill="#2d3748">strasse</text>
    <text x="163" y="116" font-size="10" fill="#718096" text-anchor="end">VARCHAR(30)</text>
    <line x1="0" y1="122" x2="175" y2="122" stroke="#fed7d7" stroke-width="1"/>
    <text x="12" y="138" font-size="11" fill="#2d3748">ortNr</text>
    <text x="163" y="138" font-size="10" fill="#718096" text-anchor="end">INT</text>
    <line x1="0" y1="144" x2="175" y2="144" stroke="#fed7d7" stroke-width="1"/>
    <text x="12" y="160" font-size="11" fill="#2d3748">geschlecht</text>
    <text x="163" y="160" font-size="10" fill="#718096" text-anchor="end">VARCHAR(1)</text>
    <line x1="0" y1="166" x2="175" y2="166" stroke="#fed7d7" stroke-width="1"/>
    <text x="12" y="182" font-size="11" fill="#2d3748">gebTag</text>
    <text x="163" y="182" font-size="10" fill="#718096" text-anchor="end">DATE</text>
  </g>

  <!-- RELATIONSHIP: FK fahrradartNr → PK fahrradartNr -->
  <path d="M 295,206 C 268,206 268,104 250,104" stroke="#c05621" stroke-width="1.8" fill="none" stroke-dasharray="5,3"/>
  <text x="271" y="218" font-size="12" font-weight="bold" fill="#c05621">N</text>
  <text x="253" y="100" font-size="12" font-weight="bold" fill="#c05621">1</text>

  <!-- LEGEND -->
  <line x1="30" y1="272" x2="750" y2="272" stroke="#e2e8f0" stroke-width="1"/>
  <text x="30" y="290" font-size="12" font-weight="bold" fill="#4a5568">Legende</text>
  <text x="30" y="308" font-size="11" fill="#2b6cb0" font-weight="bold">🔑 PK – Primärschlüssel: eindeutiger Bezeichner eines Datensatzes</text>
  <text x="430" y="308" font-size="11" fill="#c05621" font-style="italic">🔗 FK – Fremdschlüssel: Verweis auf PK einer anderen Tabelle</text>

</svg>
